<svg xmlns="http://www.w3.org/2000/svg" viewBox="0 0 128 128" role="img" aria-label="WakeMeUp alarm clock">
  <defs>
    <linearGradient id="bodyBlue" x1="0%" x2="100%" y1="0%" y2="100%">
      <stop offset="0%" stop-color="#7ec3ff" />
      <stop offset="100%" stop-color="#2d83f7" />
    </linearGradient>
    <linearGradient id="bellGold" x1="0%" x2="100%" y1="0%" y2="100%">
      <stop offset="0%" stop-color="#ffd76a" />
      <stop offset="100%" stop-color="#ffb938" />
    </linearGradient>
    <linearGradient id="legWarm" x1="0%" x2="100%" y1="0%" y2="100%">
      <stop offset="0%" stop-color="#f4c09a" />
      <stop offset="100%" stop-color="#d98b58" />
    </linearGradient>
  </defs>

  <g stroke="#0e1116" stroke-linecap="round" stroke-linejoin="round" stroke-width="4.5">
    <path fill="url(#legWarm)" d="M34 96 22 117h16l9-16z" />
    <path fill="url(#legWarm)" d="M94 96l12 21H90l-9-16z" />
    <path fill="url(#bellGold)" d="M31 21c-12 0-21 10-21 22 0 7 3 14 8 19l23-29c-3-7-10-12-18-12z" />
    <path fill="url(#bellGold)" d="M97 21c12 0 21 10 21 22 0 7-3 14-8 19L87 33c3-7 10-12 18-12z" />
    <path fill="none" d="M35 34 22 20M93 34l13-14" />
    <path fill="#dfe9f7" d="M58 8h12v13H58z" />
    <path fill="#dfe9f7" d="M49 3h30a6 6 0 0 1 0 12H49a6 6 0 0 1 0-12z" />
    <circle cx="64" cy="68" r="42" fill="url(#bodyBlue)" />
    <circle cx="64" cy="68" r="31" fill="#f6f8fc" />
    <circle cx="64" cy="68" r="15" fill="#dae2f0" opacity=".9" stroke="none" />

    <path fill="none" d="M64 42v9M64 85v9M38 68h9M81 68h9M45 49l6 6M83 49l-6 6M45 87l6-6M83 87l-6-6" />
    <path fill="#e4a175" d="M64 68V49" />
    <path fill="#e4a175" d="m64 68 12 12" />
    <circle cx="64" cy="68" r="7" fill="#f6f8fc" />
  </g>
</svg>
